<svg width="28" height="28" viewBox="0 0 28 28" fill="none" xmlns="http://www.w3.org/2000/svg">
<circle cx="14" cy="14" r="14" fill="#009DD9"/>
<path d="M6.54537 14.2622L9.76404 15.4624L11.0188 19.4994C11.0733 19.7721 11.4006 19.8267 11.6189 19.663L13.4191 18.1901C13.5828 18.0264 13.8556 18.0264 14.0738 18.1901L17.2924 20.5359C17.5106 20.6996 17.838 20.5905 17.8925 20.3177L20.2929 8.86145C20.3474 8.58868 20.0747 8.31592 19.8019 8.42502L6.54537 13.5531C6.21805 13.6622 6.21805 14.1531 6.54537 14.2622ZM10.8551 14.8623L17.1833 10.989C17.2924 10.9345 17.4015 11.0981 17.2924 11.1527L12.1098 16.008C11.9462 16.1716 11.7825 16.3898 11.7825 16.6626L11.6189 17.9719C11.6189 18.1355 11.3461 18.1901 11.2915 17.9719L10.6369 15.5715C10.4732 15.2988 10.5823 14.9714 10.8551 14.8623Z" fill="#FEFEFE"/>
</svg>
