<svg width="42" height="42" viewBox="0 0 42 42" fill="none" xmlns="http://www.w3.org/2000/svg">
<g clip-path="url(#clip0_313_544)">
<circle cx="21" cy="21" r="21" fill="#FEFEFE"/>
<path d="M30.149 19.8585C30.149 19.4512 30.0811 18.9761 30.0811 18.433C30.0132 17.89 29.9453 17.347 29.8774 16.8718C29.7417 16.3288 29.538 15.9215 29.1308 15.5821C28.7914 15.2427 28.3162 15.0391 27.8411 14.9712C26.2799 14.7676 23.972 14.6997 20.8496 14.6997C17.7271 14.6997 15.3514 14.7676 13.858 14.9712C13.3829 15.0391 12.9077 15.2427 12.5684 15.5821C12.229 15.9215 11.9574 16.3288 11.8217 16.8718C11.6859 17.347 11.6181 17.8221 11.6181 18.433C11.5502 18.9761 11.5502 19.4512 11.5502 19.8585C11.5502 20.2658 11.5502 20.7409 11.5502 21.4197C11.5502 22.0985 11.5502 22.6415 11.5502 22.9809C11.5502 23.3882 11.6181 23.8633 11.6181 24.4064C11.6859 24.9494 11.7538 25.4924 11.8217 25.9676C11.9574 26.5106 12.1611 26.9179 12.5684 27.2573C12.9077 27.5967 13.3829 27.8003 13.858 27.8682C15.4193 28.0718 17.7271 28.1397 20.8496 28.1397C23.972 28.1397 26.3477 28.0718 27.8411 27.8682C28.3162 27.8003 28.7914 27.5967 29.1308 27.2573C29.4702 26.9179 29.7417 26.5106 29.8774 25.9676C30.0132 25.4924 30.0811 25.0173 30.0811 24.4064C30.149 23.8633 30.149 23.3882 30.149 22.9809C30.149 22.5736 30.149 22.0985 30.149 21.4197C30.149 20.7409 30.149 20.1979 30.149 19.8585ZM24.4471 21.9627L19.0847 25.2888C19.0168 25.3567 18.8811 25.4246 18.7453 25.4246C18.6096 25.4246 18.5417 25.4246 18.4059 25.3567C18.2023 25.2209 18.0665 25.0173 18.0665 24.7458V18.0258C18.0665 17.7542 18.2023 17.5506 18.4059 17.4149C18.6096 17.2791 18.8811 17.2791 19.0847 17.4149L24.4471 20.7409C24.6508 20.8767 24.7865 21.0803 24.7865 21.2839C24.7865 21.4876 24.6508 21.827 24.4471 21.9627Z" fill="#36393F"/>
</g>
<defs>
<clipPath id="clip0_313_544">
<rect width="42" height="42" fill="white"/>
</clipPath>
</defs>
</svg>
